<svg xmlns="http://www.w3.org/2000/svg" width="81.59mm" height="15.26mm" viewBox="0 0 231.27 43.27"><defs><style>.cls-1{fill:#fff;stroke:#7b6a58;stroke-miterlimit:10;stroke-width:4px;}.cls-2{fill:#7b6a58;}</style></defs><g id="Layer_2" data-name="Layer 2"><g id="Layer_1-2" data-name="Layer 1"><rect class="cls-1" x="2" y="2" width="227.27" height="39.27"/><path class="cls-2" d="M59.44,20.11h.48v6.4a8.37,8.37,0,0,1-6,2.25,8.71,8.71,0,0,1-9-8.83,8.7,8.7,0,0,1,9-8.82,8.35,8.35,0,0,1,6,2.22l-.3.35a7.91,7.91,0,0,0-5.73-2.1,8.35,8.35,0,1,0,0,16.7,7.75,7.75,0,0,0,5.55-2Z"/><path class="cls-2" d="M74.34,20.21v8.47h-.5V25.93a5.09,5.09,0,0,1-4.92,2.83c-2.9,0-4.57-1.45-4.57-3.63,0-1.85,1.15-3.47,4.59-3.47h4.9V20.23c0-2.7-1.42-4.07-4.1-4.07A6.72,6.72,0,0,0,65.05,18l-.35-.35a7.32,7.32,0,0,1,5-1.93C72.72,15.68,74.34,17.26,74.34,20.21ZM73.84,25V22.13H68.92c-2.92,0-4.07,1.25-4.07,3,0,1.95,1.5,3.17,4.07,3.17A4.89,4.89,0,0,0,73.84,25ZM67.22,11.51a2.29,2.29,0,0,1,2.3-2.32,2.32,2.32,0,0,1,2.32,2.32,2.31,2.31,0,0,1-4.62,0Zm.5,0a1.72,1.72,0,0,0,1.8,1.77,1.76,1.76,0,0,0,1.82-1.77,1.82,1.82,0,0,0-1.82-1.85A1.79,1.79,0,0,0,67.72,11.51Z"/><path class="cls-2" d="M92,27.83a3.56,3.56,0,0,1-2.52.93,2.9,2.9,0,0,1-3.13-3.18V16.23H83.9v-.47h2.49V12.93h.5v2.83h4.38v.47H86.89v9.23c0,1.82.9,2.82,2.65,2.82a3.06,3.06,0,0,0,2.15-.8Z"/><path class="cls-2" d="M95.49,11.53a.65.65,0,1,1,.65.65A.66.66,0,0,1,95.49,11.53Zm.4,4.23h.5V28.68h-.5Z"/><path class="cls-2" d="M102.14,10.13h.5V28.68h-.5Z"/><path class="cls-2" d="M127.19,22.23a6.22,6.22,0,0,1-6.27,6.53,6,6,0,0,1-5.78-4v8.77h-.5V15.76h.5v4a6,6,0,0,1,5.78-4A6.24,6.24,0,0,1,127.19,22.23Zm-.5,0a5.78,5.78,0,1,0-11.55,0,5.78,5.78,0,1,0,11.55,0Z"/><path class="cls-2" d="M137,15.68v.5h-.15c-3.1,0-4.92,2.13-4.92,5.55v7h-.5V15.76h.5v3.35A4.9,4.9,0,0,1,137,15.68Z"/><path class="cls-2" d="M139.09,22.21a6.28,6.28,0,1,1,12.55,0,6.28,6.28,0,1,1-12.55,0Zm12,0a5.78,5.78,0,1,0-11.55,0,5.78,5.78,0,1,0,11.55,0Z"/><path class="cls-2" d="M150.85,32.68l.34-.35a3.19,3.19,0,0,0,2.23.8c1.67,0,2.57-1,2.57-2.83V15.76h.5V30.43a2.87,2.87,0,0,1-3.05,3.17A3.62,3.62,0,0,1,150.85,32.68Zm4.74-21.15a.65.65,0,1,1,.65.65A.66.66,0,0,1,155.59,11.53Z"/><path class="cls-2" d="M172.69,22.21h-11.5a5.82,5.82,0,0,0,6,6.07,5.42,5.42,0,0,0,4.4-2l.35.35a6.07,6.07,0,0,1-4.75,2.13,6.28,6.28,0,0,1-6.45-6.55c0-3.83,2.55-6.53,6-6.53s6,2.65,6,6.4Zm-11.5-.48h11a5.52,5.52,0,1,0-11,0Z"/><path class="cls-2" d="M181.24,21.21l-3.82,3.47v4h-.5V10.13h.5V24.08l9.12-8.32h.73l-5.63,5.15,6.2,7.77h-.65Z"/><path class="cls-2" d="M197,27.83a3.56,3.56,0,0,1-2.53.93,2.89,2.89,0,0,1-3.12-3.18V16.23h-2.5v-.47h2.5V12.93h.5v2.83h4.37v.47h-4.37v9.23c0,1.82.9,2.82,2.65,2.82a3.08,3.08,0,0,0,2.15-.8Z"/></g></g></svg>