<svg xmlns="http://www.w3.org/2000/svg" xmlns:xlink="http://www.w3.org/1999/xlink" width="65.322" height="62.5" viewBox="0 0 65.322 62.5">
  <defs>
    <clipPath id="clip-path">
      <rect width="65.322" height="62.5" fill="none"/>
    </clipPath>
  </defs>
  <g id="Instagram" clip-path="url(#clip-path)">
    <path id="Path_3" data-name="Path 3" d="M20.661,3.673a63.35,63.35,0,0,1,8.264.23,10.648,10.648,0,0,1,3.9.689,8.062,8.062,0,0,1,3.9,3.9,10.647,10.647,0,0,1,.689,3.9c0,2.066.23,2.755.23,8.264a63.35,63.35,0,0,1-.23,8.264,10.648,10.648,0,0,1-.689,3.9,8.062,8.062,0,0,1-3.9,3.9,10.647,10.647,0,0,1-3.9.689c-2.066,0-2.755.23-8.264.23a63.35,63.35,0,0,1-8.264-.23,10.648,10.648,0,0,1-3.9-.689,8.062,8.062,0,0,1-3.9-3.9,10.648,10.648,0,0,1-.689-3.9c0-2.066-.23-2.755-.23-8.264A63.35,63.35,0,0,1,3.9,12.4a10.648,10.648,0,0,1,.689-3.9A8.245,8.245,0,0,1,6.2,6.2a3.881,3.881,0,0,1,2.3-1.607A10.648,10.648,0,0,1,12.4,3.9a63.35,63.35,0,0,1,8.264-.23m0-3.673a67.83,67.83,0,0,0-8.494.23,14.172,14.172,0,0,0-5.05.918,8.987,8.987,0,0,0-3.673,2.3,8.987,8.987,0,0,0-2.3,3.673,10.46,10.46,0,0,0-.918,5.05A67.83,67.83,0,0,0,0,20.661a67.83,67.83,0,0,0,.23,8.494,14.172,14.172,0,0,0,.918,5.05,8.987,8.987,0,0,0,2.3,3.673,8.987,8.987,0,0,0,3.673,2.3,14.172,14.172,0,0,0,5.05.918,67.83,67.83,0,0,0,8.494.23,67.83,67.83,0,0,0,8.494-.23,14.172,14.172,0,0,0,5.05-.918,9.631,9.631,0,0,0,5.969-5.969,14.172,14.172,0,0,0,.918-5.05c0-2.3.23-2.984.23-8.494a67.83,67.83,0,0,0-.23-8.494,14.172,14.172,0,0,0-.918-5.05,8.987,8.987,0,0,0-2.3-3.673,8.987,8.987,0,0,0-3.673-2.3A14.172,14.172,0,0,0,29.155.23,67.83,67.83,0,0,0,20.661,0m0,10.1A10.39,10.39,0,0,0,10.1,20.661,10.56,10.56,0,1,0,20.661,10.1m0,17.447a6.764,6.764,0,0,1-6.887-6.887,6.764,6.764,0,0,1,6.887-6.887,6.764,6.764,0,0,1,6.887,6.887,6.764,6.764,0,0,1-6.887,6.887M31.68,7.116a2.525,2.525,0,1,0,2.525,2.525A2.548,2.548,0,0,0,31.68,7.116" fill="#fff" fill-rule="evenodd"/>
  </g>
</svg>
