<svg xmlns="http://www.w3.org/2000/svg" width="85.23mm" height="15.61mm" viewBox="0 0 241.59 44.26"><defs><style>.cls-1{fill:#7b6a58;}.cls-2{fill:#634e42;}</style></defs><g id="Layer_2" data-name="Layer 2"><g id="Layer_1-2" data-name="Layer 1"><path class="cls-1" d="M241.59,44.26H0V0H241.59ZM4,40.26H237.59V4H4Z"/><path class="cls-2" d="M62.09,24h.44v5.89A7.71,7.71,0,0,1,57,31.91a8.12,8.12,0,1,1,0-16.24,7.69,7.69,0,0,1,5.55,2l-.28.32A7.25,7.25,0,0,0,57,16.11a7.68,7.68,0,1,0,0,15.36,7.13,7.13,0,0,0,5.11-1.82Z"/><path class="cls-2" d="M75.8,24v7.8h-.46V29.31a4.69,4.69,0,0,1-4.53,2.6c-2.67,0-4.21-1.34-4.21-3.34,0-1.7,1.06-3.19,4.23-3.19h4.51V24.07c0-2.49-1.31-3.75-3.77-3.75A6.25,6.25,0,0,0,67.24,22l-.32-.32a6.78,6.78,0,0,1,4.62-1.77C74.3,19.88,75.8,21.33,75.8,24Zm-.46,4.39V25.81H70.81c-2.69,0-3.75,1.15-3.75,2.74,0,1.79,1.38,2.92,3.75,2.92A4.5,4.5,0,0,0,75.34,28.43ZM69.25,16a2.11,2.11,0,0,1,2.11-2.14A2.14,2.14,0,0,1,73.5,16a2.08,2.08,0,0,1-2.14,2.07A2.05,2.05,0,0,1,69.25,16Zm.46,0a1.58,1.58,0,0,0,1.65,1.63A1.62,1.62,0,0,0,73,16a1.68,1.68,0,0,0-1.68-1.7A1.64,1.64,0,0,0,69.71,16Z"/><path class="cls-2" d="M92.08,31.06a3.31,3.31,0,0,1-2.32.85A2.66,2.66,0,0,1,86.89,29v-8.6h-2.3V20h2.3v-2.6h.46V20h4v.44h-4v8.48c0,1.68.82,2.6,2.43,2.6a2.83,2.83,0,0,0,2-.74Z"/><path class="cls-2" d="M95.26,16.06a.6.6,0,1,1,.6.6A.6.6,0,0,1,95.26,16.06ZM95.63,20h.46V31.84h-.46Z"/><path class="cls-2" d="M101.38,14.78h.46V31.84h-.46Z"/><path class="cls-2" d="M124.42,25.91a5.72,5.72,0,0,1-5.77,6,5.5,5.5,0,0,1-5.31-3.68V36.3h-.46V20h.46v3.63a5.49,5.49,0,0,1,5.31-3.7A5.74,5.74,0,0,1,124.42,25.91Zm-.46,0a5.32,5.32,0,1,0-10.62,0,5.32,5.32,0,1,0,10.62,0Z"/><path class="cls-2" d="M126.91,25.88a5.77,5.77,0,1,1,11.54,0,5.78,5.78,0,1,1-11.54,0Zm11.08,0a5.32,5.32,0,1,0-10.62,0,5.32,5.32,0,1,0,10.62,0Z"/><path class="cls-2" d="M147.47,19.88v.46h-.14c-2.85,0-4.53,1.95-4.53,5.11v6.39h-.46V20h.46V23A4.51,4.51,0,0,1,147.47,19.88Z"/><path class="cls-2" d="M156.87,31.06a3.31,3.31,0,0,1-2.32.85A2.66,2.66,0,0,1,151.68,29v-8.6h-2.3V20h2.3v-2.6h.46V20h4v.44h-4v8.48c0,1.68.82,2.6,2.43,2.6a2.81,2.81,0,0,0,2-.74Z"/><path class="cls-2" d="M161.06,17.74V20h4v.44h-4V31.84h-.46V20.39h-2.3V20h2.3V17.63a2.68,2.68,0,0,1,2.87-2.92,3.27,3.27,0,0,1,2.33.85l-.32.32a2.87,2.87,0,0,0-2-.74C161.89,15.14,161.06,16.06,161.06,17.74Z"/><path class="cls-2" d="M165.94,25.88a5.77,5.77,0,1,1,11.54,0,5.78,5.78,0,1,1-11.54,0Zm11.08,0a5.32,5.32,0,1,0-10.62,0,5.32,5.32,0,1,0,10.62,0Z"/><path class="cls-2" d="M181.37,14.78h.46V31.84h-.46Z"/><path class="cls-2" d="M186.75,16.06a.6.6,0,1,1,.6.6A.61.61,0,0,1,186.75,16.06Zm.37,3.89h.46V31.84h-.46Z"/><path class="cls-2" d="M191.47,25.88a5.77,5.77,0,1,1,11.54,0,5.78,5.78,0,1,1-11.54,0Zm11.08,0a5.32,5.32,0,1,0-10.62,0,5.32,5.32,0,1,0,10.62,0Z"/></g></g></svg>